<svg width="24" height="24" viewBox="0 0 24 24" fill="none" xmlns="http://www.w3.org/2000/svg">
<path d="M6.07187 18.9281H8.86262V13.9998C8.86262 13.6807 8.97238 13.4113 9.19187 13.1916C9.41154 12.9721 9.68096 12.8623 10.0001 12.8623H14.0001C14.3193 12.8623 14.5887 12.9721 14.8084 13.1916C15.0279 13.4113 15.1376 13.6807 15.1376 13.9998V18.9281H17.9284V10.0356L12.0001 5.5896L6.07187 10.0356V18.9281ZM3.79688 18.9281V10.0356C3.79688 9.67609 3.87671 9.33551 4.03638 9.01384C4.19588 8.69218 4.41854 8.42576 4.70438 8.2146L10.6326 3.76834C11.0345 3.46184 11.4903 3.30859 12.0001 3.30859C12.51 3.30859 12.9658 3.46184 13.3676 3.76834L19.2959 8.2146C19.5817 8.42576 19.8044 8.69218 19.9639 9.01384C20.1235 9.33551 20.2034 9.67609 20.2034 10.0356V18.9281C20.2034 19.5578 19.9816 20.0943 19.5381 20.5378C19.0946 20.9813 18.558 21.2031 17.9284 21.2031H14.0899C13.7705 21.2031 13.5011 21.0933 13.2816 20.8738C13.0621 20.6542 12.9524 20.3848 12.9524 20.0656V15.0476H11.0479V20.0656C11.0479 20.3848 10.9381 20.6542 10.7186 20.8738C10.4991 21.0933 10.2297 21.2031 9.91037 21.2031H6.07187C5.44221 21.2031 4.90562 20.9813 4.46213 20.5378C4.01863 20.0943 3.79688 19.5578 3.79688 18.9281Z" fill="white"/>
</svg>
