<svg width="202" height="22" viewBox="0 0 202 22" fill="none" xmlns="http://www.w3.org/2000/svg">
<path d="M93.3166 13.5578C93.3166 12.0578 93.3166 10.5538 93.3166 9.05382C93.3249 6.00066 95.5509 4.65645 98.2932 6.22606C99.1563 6.71785 99.718 6.70965 100.527 6.38999C102.981 5.42691 105.384 5.50478 107.594 7.03341C108.531 7.68093 109.209 7.58667 110.163 6.98013C114.045 4.5171 120.458 5.45559 120.619 12.2217C120.681 14.7503 120.396 17.2502 120.508 19.7665C120.599 21.8239 119.054 21.7132 117.658 21.7747C116.167 21.8402 115.089 21.537 115.131 19.6928C115.18 17.4429 115.131 15.1888 115.061 12.9389C115.011 11.4554 114.503 10.1112 112.756 10.0948C110.968 10.0784 109.973 11.271 109.861 12.9594C109.721 15.1356 109.7 17.3281 109.803 19.5084C109.939 22.3402 107.767 21.4796 106.355 21.705C104.773 21.9591 104.36 20.9386 104.385 19.5698C104.418 17.7256 104.426 15.8814 104.385 14.0413C104.327 11.5414 103.282 10.0579 101.688 10.0989C100.053 10.1399 99.0448 11.6275 99.0283 14.0454C99.0159 15.8896 99.0407 17.7338 99.0118 19.5739C98.9705 22.5451 96.5256 21.1927 95.142 21.5698C93.8163 21.9304 93.3497 20.8649 93.3332 19.7051C93.3042 17.656 93.3249 15.611 93.3249 13.5619C93.3208 13.5619 93.3166 13.5619 93.3125 13.5619L93.3166 13.5578Z" fill="#522E9A"/>
<path d="M7.16539 1.25924C9.77549 1.38628 12.7862 1.01745 15.6689 2.39035C19.7038 4.30831 21.7935 8.39013 21.0749 13.4924C20.5132 17.4636 17.0772 20.7544 12.9307 21.2995C9.38728 21.7626 5.8273 21.8241 2.25906 21.7995C0.722733 21.7872 -0.0206495 21.2175 0.0289093 19.6192C0.0908579 17.5742 0.0825981 15.5292 0.0371692 13.4842C0.00412991 12.0662 0.664915 11.5007 2.03191 11.5662C2.71748 11.599 3.40304 11.5785 4.08861 11.5826C5.3028 11.5867 5.83556 12.1318 5.65797 13.3859C5.56298 14.0498 5.58363 14.7465 5.65797 15.4186C5.79013 16.5988 6.34354 17.2996 7.70641 17.0783C8.51174 16.9472 9.34598 16.9636 10.1678 16.9226C13.1992 16.7751 15.5491 14.4924 15.6193 11.6236C15.6936 8.65652 13.385 6.05825 10.3206 5.89432C7.65272 5.75088 4.96828 5.76318 2.29623 5.84104C0.578187 5.89022 0 5.21402 0 3.55424C0 1.91495 0.532758 1.14449 2.25906 1.24285C3.76234 1.32891 5.27802 1.25924 7.16539 1.25924Z" fill="#522E9A"/>
<path d="M142.428 15.3528C143.403 12.6111 144.134 10.435 144.956 8.28754C145.303 7.37363 145.373 6.11958 146.641 5.93926C147.694 5.78763 148.987 5.40649 149.775 6.27941C150.432 7.00479 149.627 7.94329 149.346 8.75473C148.082 12.3612 146.699 15.9266 145.551 19.5699C144.898 21.6395 143.448 21.7379 141.706 21.8034C139.847 21.8731 139.083 20.8158 138.765 19.2912C138.36 17.3282 137.365 15.6151 136.25 13.6439C135.602 15.3528 134.924 17.0536 134.317 18.779C133.371 21.4551 132.773 21.8362 129.985 21.7911C128.436 21.7666 127.639 21.074 127.152 19.6478C125.814 15.7094 124.414 11.7915 122.96 7.89001C122.419 6.43924 122.795 5.89008 124.335 5.82451C127.106 5.70156 127.433 5.88598 128.283 8.56212C128.82 10.2506 129.37 11.939 129.935 13.6193C130.08 14.0496 130.129 14.6766 130.708 14.7012C131.294 14.7299 131.406 14.1029 131.563 13.6808C132.298 11.7013 133.095 9.73421 133.661 7.70559C134.074 6.23023 134.895 5.75894 136.341 5.80812C137.687 5.8532 138.844 5.77943 139.347 7.52117C140.062 9.98829 140.929 12.4308 142.424 15.3488L142.428 15.3528Z" fill="#522E9A"/>
<path d="M53.2434 10.6318C53.2434 7.77129 53.3095 4.90665 53.2227 2.04609C53.1608 -0.0644858 54.5195 0.0420623 55.9526 0.0297676C57.4187 0.017473 58.761 -0.0112145 58.6412 2.07887C58.5627 3.43128 58.2075 5.09516 58.8312 6.08692C59.7604 7.56228 61.1522 5.75907 62.4324 5.73858C65.9098 5.67301 68.5653 6.89428 69.9613 9.65237C71.5017 12.6932 71.1011 16.898 69.0485 19.3037C67.0497 21.6478 63.6508 22.4593 60.4047 21.2995C59.5209 20.9839 58.7692 20.8774 57.8606 21.2995C57.142 21.6314 56.2747 21.6847 55.4612 21.7585C53.9248 21.9019 53.1938 21.2257 53.2227 19.6274C53.2806 16.6316 53.2393 13.6317 53.2434 10.6318ZM65.5794 13.5498C65.5257 11.4761 63.816 9.91465 61.6767 9.98023C59.843 10.0376 58.4264 11.8121 58.4677 13.9965C58.5049 15.9718 60.2188 17.6685 62.1392 17.6357C64.0307 17.6029 65.6372 15.6972 65.5794 13.5498Z" fill="#522E9A"/>
<path d="M201.832 5.95619C200.597 7.85367 199.061 8.99706 197.806 10.3905C195.877 12.5338 195.865 12.8002 197.628 15.0255C198.818 16.5214 200.028 18.0008 201.196 19.5131C201.556 19.9762 202.245 20.4475 201.911 21.0786C201.585 21.6974 200.783 21.304 200.209 21.4351C196.934 22.1851 195.191 20.1032 193.432 17.9312C192.928 17.3123 192.623 16.0542 191.487 16.4845C190.397 16.8984 189.666 17.9885 189.893 19.1074C190.438 21.804 188.662 21.3409 187.093 21.4433C185.214 21.5663 184.759 20.6729 184.78 18.9885C184.846 13.4682 184.788 7.94792 184.813 2.42763C184.821 0.177715 185.176 0.0219815 188.005 0.0629636C189.992 0.0916511 190.186 1.17768 190.087 2.74729C189.951 4.91525 189.942 7.0873 189.889 9.25935C189.876 9.80851 189.831 10.4355 190.388 10.7265C191.128 11.1076 191.483 10.3905 191.908 10.0052C192.619 9.36181 193.387 8.74298 193.94 7.98071C195.968 5.18573 198.772 5.84144 201.828 5.96029L201.832 5.95619Z" fill="#522E9A"/>
<path d="M41.1411 14.1315C41.1411 18.3486 36.9905 22.0124 32.2287 22.0001C27.2274 21.9837 23.2049 18.3568 23.176 13.8323C23.143 8.87349 26.9507 5.71377 32.968 5.70557C37.7215 5.70147 41.1411 9.22593 41.1411 14.1315ZM35.5451 13.7176C35.5657 11.5086 34.2152 10.0948 32.0388 10.0497C30.2216 10.0128 28.7142 11.6234 28.6481 13.6725C28.5779 15.7749 30.1225 17.5822 31.9933 17.5863C34.1326 17.5863 35.5244 16.0781 35.5451 13.7176Z" fill="#522E9A"/>
<path d="M81.643 21.8362C76.588 21.8116 72.7017 18.201 72.7926 13.6151C72.8917 8.72598 76.6293 5.4679 82.3409 5.75887C87.8296 6.03755 90.4975 9.06203 90.7288 14.2299C90.9146 18.4101 86.5989 21.8566 81.643 21.8321V21.8362ZM85.3062 13.8856C85.2566 11.5619 83.679 9.95544 81.486 9.98822C79.5821 10.0169 78.1491 11.7341 78.2028 13.9184C78.2564 16.0823 79.7556 17.6601 81.7462 17.6519C83.6501 17.6437 85.3475 15.8446 85.3062 13.8856Z" fill="#522E9A"/>
<path d="M159.708 21.8159C154.703 21.7503 150.899 18.189 150.998 13.6522C151.097 8.87373 154.855 5.74269 160.406 5.81646C165.205 5.87793 168.773 9.30814 168.757 13.8449C168.74 18.5373 164.941 21.8856 159.708 21.82V21.8159ZM163.367 13.9842C163.4 11.4925 162.124 9.95975 160.034 9.98024C157.717 10.0007 156.379 11.3654 156.388 13.6891C156.396 16.0046 157.841 17.6767 159.844 17.689C161.818 17.6972 163.338 16.0989 163.367 13.9883V13.9842Z" fill="#522E9A"/>
<path d="M49.4717 6.22608C49.4717 10.8489 49.4634 15.4716 49.4758 20.0944C49.4758 21.0124 49.0463 21.4878 48.1542 21.5944C48.018 21.6108 47.8817 21.6108 47.7454 21.6231C43.9087 21.9878 43.8013 21.8976 43.8013 18.0699C43.8013 12.8119 43.8839 7.5539 43.7765 2.3C43.7311 0.0172919 45.0362 0.0131935 46.6881 0.000898876C48.3814 -0.0113958 49.7401 0.0951587 49.5584 2.33278C49.4552 3.61962 49.5378 4.92695 49.5378 6.22198C49.513 6.22198 49.4923 6.22198 49.4676 6.22198L49.4717 6.22608Z" fill="#522E9A"/>
<path d="M174.009 21.4304C172.266 21.7583 171.547 20.8976 171.609 18.9264C171.712 15.5208 171.63 12.1152 171.646 8.70547C171.663 6.07852 174.199 4.60316 176.346 6.23425C177.486 7.09897 178.093 6.69325 179.014 6.3449C181.76 5.29986 182.611 5.95967 182.322 8.79973C182.223 9.77511 181.814 10.1931 180.819 10.3652C177.92 10.8734 177.032 11.9881 176.995 14.9389C176.978 16.2339 176.995 17.5289 176.99 18.824C176.978 21.3075 176.842 21.4304 174.013 21.4345L174.009 21.4304Z" fill="#522E9A"/>
</svg>
