<svg width="24" height="24" viewBox="0 0 24 24" fill="none" xmlns="http://www.w3.org/2000/svg">
<g id="compare_arrows_24dp_5F6368 1" clip-path="url(#clip0_3024_2598)">
<path id="Vector" d="M8.9618 13.4173H2.13578C1.5111 13.4173 1 13.9284 1 14.5531C1 15.1778 1.5111 15.6889 2.13578 15.6889H8.9618V17.7219C8.9618 18.233 9.57512 18.4829 9.92721 18.1195L13.0847 14.9506C13.3005 14.7235 13.3005 14.3714 13.0847 14.1442L9.92721 10.9754C9.57512 10.612 8.9618 10.8732 8.9618 11.3729V13.4173ZM15.7537 10.9073V8.87423H22.5798C23.2044 8.87423 23.7155 8.36313 23.7155 7.73845C23.7155 7.11377 23.2044 6.60267 22.5798 6.60267H15.7537V4.56963C15.7537 4.05853 15.1404 3.80866 14.7883 4.17211L11.6309 7.34093C11.4151 7.56808 11.4151 7.92017 11.6309 8.14733L14.7883 11.3161C15.1404 11.6682 15.7537 11.4184 15.7537 10.9073Z" fill="white"/>
</g>
<defs>
<clipPath id="clip0_3024_2598">
<rect width="24" height="24" fill="white"/>
</clipPath>
</defs>
</svg>
