<svg width="24" height="24" viewBox="0 0 24 24" fill="none" xmlns="http://www.w3.org/2000/svg">
<path d="M12.0001 11.8981C10.8403 11.8981 9.84979 11.4875 9.02863 10.6663C8.20746 9.84514 7.79687 8.85464 7.79687 7.69481C7.79687 6.53514 8.20746 5.54564 9.02863 4.72631C9.84979 3.90714 10.8403 3.49756 12.0001 3.49756C13.16 3.49756 14.1505 3.90714 14.9716 4.72631C15.7928 5.54564 16.2034 6.53514 16.2034 7.69481C16.2034 8.85464 15.7928 9.84514 14.9716 10.6663C14.1505 11.4875 13.16 11.8981 12.0001 11.8981ZM3.79688 18.0298V17.2896C3.79688 16.6857 3.95304 16.1308 4.26538 15.6248C4.57771 15.1186 4.99271 14.7324 5.51038 14.4661C6.55571 13.9454 7.61962 13.5539 8.70212 13.2916C9.78446 13.0292 10.8838 12.8981 12.0001 12.8981C13.124 12.8981 14.2272 13.0282 15.3099 13.2886C16.3925 13.5489 17.4525 13.9394 18.4899 14.4601C19.0075 14.7259 19.4225 15.1113 19.7349 15.6163C20.0472 16.1213 20.2034 16.6791 20.2034 17.2896V18.0298C20.2034 18.6595 19.9816 19.1961 19.5381 19.6396C19.0946 20.0831 18.558 20.3048 17.9284 20.3048H6.07187C5.44221 20.3048 4.90562 20.0831 4.46213 19.6396C4.01863 19.1961 3.79688 18.6595 3.79688 18.0298ZM6.07187 18.0298H17.9284V17.3193C17.9284 17.1398 17.8825 16.9766 17.7909 16.8298C17.6992 16.683 17.5784 16.5688 17.4284 16.4873C16.5524 16.0533 15.662 15.7258 14.7571 15.5048C13.8525 15.2836 12.9335 15.1731 12.0001 15.1731C11.0748 15.1731 10.1558 15.2836 9.24312 15.5048C8.33046 15.7258 7.44004 16.0533 6.57187 16.4873C6.42187 16.5688 6.30104 16.683 6.20937 16.8298C6.11771 16.9766 6.07187 17.1398 6.07187 17.3193V18.0298ZM11.9999 9.62306C12.53 9.62306 12.984 9.43431 13.3619 9.05681C13.7395 8.67931 13.9284 8.22539 13.9284 7.69506C13.9284 7.16489 13.7396 6.71198 13.3621 6.33631C12.9845 5.96048 12.5305 5.77256 12.0004 5.77256C11.4702 5.77256 11.0162 5.96081 10.6384 6.33731C10.2607 6.71381 10.0719 7.16631 10.0719 7.69481C10.0719 8.22514 10.2606 8.67914 10.6381 9.05681C11.0158 9.43431 11.4697 9.62306 11.9999 9.62306Z" fill="white"/>
</svg>
