<svg width="24" height="24" viewBox="0 0 24 24" fill="none" xmlns="http://www.w3.org/2000/svg">
<path d="M10.4996 15.1374V16.1374C10.4996 16.5541 10.6454 16.9082 10.9371 17.1999C11.2288 17.4916 11.5829 17.6374 11.9996 17.6374C12.4163 17.6374 12.7704 17.4916 13.0621 17.1999C13.3538 16.9082 13.4996 16.5541 13.4996 16.1374V15.1374H14.4996C14.9163 15.1374 15.2704 14.9916 15.5621 14.6999C15.8538 14.4082 15.9996 14.0541 15.9996 13.6374C15.9996 13.2207 15.8538 12.8666 15.5621 12.5749C15.2704 12.2832 14.9163 12.1374 14.4996 12.1374H13.4996V11.1374C13.4996 10.7207 13.3538 10.3666 13.0621 10.0749C12.7704 9.78324 12.4163 9.6374 11.9996 9.6374C11.5829 9.6374 11.2288 9.78324 10.9371 10.0749C10.6454 10.3666 10.4996 10.7207 10.4996 11.1374V12.1374H9.49961C9.08294 12.1374 8.72878 12.2832 8.43711 12.5749C8.14544 12.8666 7.99961 13.2207 7.99961 13.6374C7.99961 14.0541 8.14544 14.4082 8.43711 14.6999C8.72878 14.9916 9.08294 15.1374 9.49961 15.1374H10.4996ZM6.99961 21.4124C6.37394 21.4124 5.83836 21.1897 5.39286 20.7442C4.94736 20.2987 4.72461 19.7631 4.72461 19.1374V8.1374C4.72461 7.51174 4.94736 6.97615 5.39286 6.53065C5.83836 6.08515 6.37394 5.8624 6.99961 5.8624H16.9996C17.6253 5.8624 18.1609 6.08515 18.6064 6.53065C19.0519 6.97615 19.2746 7.51174 19.2746 8.1374V19.1374C19.2746 19.7631 19.0519 20.2987 18.6064 20.7442C18.1609 21.1897 17.6253 21.4124 16.9996 21.4124H6.99961ZM6.99961 19.1374H16.9996V8.1374H6.99961V19.1374ZM6.95186 4.8624C6.63253 4.8624 6.36311 4.75265 6.14361 4.53315C5.92411 4.31349 5.81436 4.04407 5.81436 3.7249C5.81436 3.40574 5.92411 3.13632 6.14361 2.91665C6.36311 2.69715 6.63253 2.5874 6.95186 2.5874H17.0474C17.3667 2.5874 17.6361 2.69715 17.8556 2.91665C18.0751 3.13632 18.1849 3.40574 18.1849 3.7249C18.1849 4.04407 18.0751 4.31349 17.8556 4.53315C17.6361 4.75265 17.3667 4.8624 17.0474 4.8624H6.95186Z" fill="white"/>
</svg>
