<?xml version="1.0" encoding="UTF-8"?>
<svg version="1.1" xmlns="http://www.w3.org/2000/svg" width="512" height="512">
<path d="M0 0 C1.46670502 -0.00780471 2.93340563 -0.01648017 4.40010071 -0.02597046 C7.45853384 -0.04078814 10.51650491 -0.0403936 13.57495117 -0.02978516 C16.67547694 -0.02053058 19.7744326 -0.03432928 22.87475586 -0.07080078 C55.65451056 -0.45326007 55.65451056 -0.45326007 69.55078125 6.6015625 C70.91784859 7.26192187 72.28554086 7.92098888 73.65380859 8.57885742 C101.64162181 22.15847298 124.21638219 47.84248731 134.59204102 77.07226562 C145.61525218 109.55471636 143.85725144 144.06690564 128.73828125 174.9140625 C122.42524833 187.23217551 114.23932073 197.77789695 104.55078125 207.6015625 C103.69871094 208.46652344 102.84664063 209.33148438 101.96875 210.22265625 C86.44681948 225.139534 66.35298105 234.66805052 45.55078125 239.6015625 C44.8028833 239.78267578 44.05498535 239.96378906 43.28442383 240.15039062 C34.76152528 241.96021176 26.1617686 242.0766707 17.48580933 242.37731934 C-35.84814928 244.30378948 -96.08472042 254.05897657 -135.13671875 294.1640625 C-138.29016426 297.95733754 -140.52396264 302.1671735 -142.76171875 306.5390625 C-143.09969482 307.19527588 -143.4376709 307.85148926 -143.78588867 308.52758789 C-147.76699822 316.6884088 -148.76234547 324.7078007 -148.78515625 333.7109375 C-148.79181305 334.64077454 -148.79846985 335.57061157 -148.80532837 336.52862549 C-148.81538453 338.47821085 -148.82014759 340.42783014 -148.81982422 342.37744141 C-148.82422777 345.35766491 -148.86070401 348.33644099 -148.8984375 351.31640625 C-148.90430113 353.21874497 -148.90827356 355.12109067 -148.91015625 357.0234375 C-148.92452728 357.90997009 -148.93889832 358.79650269 -148.95370483 359.7098999 C-148.92291808 363.86999217 -148.80260451 366.03799424 -146.54541016 369.63769531 C-142.6027227 373.33149661 -138.86353727 372.74595083 -133.72067261 372.73959351 C-132.3483772 372.74382543 -132.3483772 372.74382543 -130.94835865 372.74814284 C-127.86383874 372.75651681 -124.77935459 372.75782949 -121.69482422 372.75927734 C-119.49078774 372.76394359 -117.28675223 372.76908683 -115.0827179 372.77467346 C-110.32621221 372.78597114 -105.56971285 372.79439732 -100.81319809 372.80079269 C-93.29171146 372.81145527 -85.77027009 372.83169612 -78.24880981 372.85391235 C-67.70168521 372.88447159 -57.15455926 372.91369526 -46.60742188 372.93945312 C-45.60293362 372.9419104 -45.60293362 372.9419104 -44.57815267 372.94441731 C-33.73609345 372.97067899 -22.89403083 372.98933452 -12.0519533 373.00604503 C-0.91893239 373.02348089 10.21402895 373.05253297 21.34699905 373.0909344 C27.59701481 373.11201116 33.84693551 373.1274626 40.09698868 373.12974167 C45.97880571 373.13188885 51.86042498 373.14776579 57.74218178 373.17413139 C59.89963885 373.18132362 62.05711988 373.18342573 64.21458626 373.18002892 C67.16340215 373.17612826 70.1115883 373.19060855 73.06033325 373.20956421 C73.91112965 373.20403451 74.76192604 373.19850482 75.63850415 373.19280756 C82.32957467 373.26688526 87.52676378 374.74591542 93.30078125 378.2890625 C98.03492696 383.15471226 99.80457181 387.80995492 100.11328125 394.6015625 C99.89547678 401.48418388 97.32948702 405.82285673 92.55078125 410.6015625 C90.69164753 410.8568635 90.69164753 410.8568635 88.38142395 410.86441803 C87.50230976 410.87210032 86.62319557 410.87978261 85.71744156 410.8876977 C84.74567852 410.88596473 83.77391548 410.88423177 82.77270508 410.88244629 C81.74491314 410.88838853 80.7171212 410.89433078 79.65818405 410.90045309 C76.19136114 410.91788781 72.72467586 410.92084869 69.2578125 410.92382812 C66.78116051 410.93308046 64.30451138 410.94312923 61.8278656 410.95391846 C55.08165474 410.98021564 48.33549807 410.99313991 41.58924866 411.00193977 C37.37561539 411.00746309 33.16199132 411.01593779 28.94836426 411.02494812 C17.28002498 411.04934214 5.61169309 411.06993559 -6.05667114 411.0766983 C-7.17750082 411.077357 -7.17750082 411.077357 -8.32097352 411.07802901 C-9.06998456 411.07846556 -9.81899561 411.07890212 -10.59070396 411.0793519 C-12.10848364 411.08023883 -13.6262633 411.08113196 -15.14404297 411.08203125 C-15.8969144 411.08247411 -16.64978583 411.08291697 -17.42547154 411.08337325 C-29.61133517 411.09126091 -41.79695896 411.12613942 -53.98273003 411.17275029 C-66.4966085 411.22022902 -79.01036684 411.24510452 -91.52433681 411.24743414 C-98.54918399 411.24926536 -105.57371918 411.26071045 -112.59848022 411.29707336 C-119.21083713 411.33118048 -125.82270773 411.33434227 -132.4351635 411.31679535 C-134.8594922 411.31525481 -137.28385273 411.32393759 -139.70810127 411.34371185 C-143.02452672 411.36917181 -146.33886109 411.35739014 -149.65527344 411.33654785 C-151.08614933 411.36071707 -151.08614933 411.36071707 -152.54593182 411.38537455 C-159.86669197 411.27816578 -164.54185472 408.79554191 -170.44921875 404.6015625 C-171.99609375 403.51875 -171.99609375 403.51875 -173.57421875 402.4140625 C-179.48992487 397.24204515 -186.10696325 389.03497802 -186.72337341 381.05029297 C-186.74435052 379.6065577 -186.75432335 378.16263708 -186.75561523 376.71875 C-186.76393875 375.92789505 -186.77226227 375.1370401 -186.78083801 374.32221985 C-186.80493312 371.70695051 -186.81371268 369.0919311 -186.8203125 366.4765625 C-186.82928439 364.65014575 -186.83840634 362.82372974 -186.84767151 360.99731445 C-186.86416637 357.16404437 -186.87186161 353.33086163 -186.87475586 349.49755859 C-186.88011765 344.61316853 -186.91770369 339.72961417 -186.96350002 334.84545898 C-186.99342937 331.06875718 -187.00048296 327.29225192 -187.00148201 323.51544189 C-187.00565859 321.71669721 -187.01798856 319.91795054 -187.03899956 318.11932373 C-187.15293656 307.51514991 -186.60391766 299.1672035 -181.44921875 289.6015625 C-180.8692193 288.38048003 -180.28970482 287.15916695 -179.7109375 285.9375 C-170.04669169 267.7600848 -155.43210644 253.93683895 -138.44921875 242.6015625 C-137.88074219 242.22080566 -137.31226563 241.84004883 -136.7265625 241.44775391 C-119.85890094 230.34777592 -101.24966937 222.18665481 -82.13671875 215.8515625 C-81.47920624 215.63283478 -80.82169373 215.41410706 -80.14425659 215.18875122 C-69.26871934 211.6015625 -69.26871934 211.6015625 -64.44921875 211.6015625 C-65.44870287 210.45527915 -66.44885006 209.30957397 -67.44921875 208.1640625 C-68.09117187 207.42542969 -68.733125 206.68679688 -69.39453125 205.92578125 C-70.69968365 204.44942065 -72.0258005 202.99113284 -73.37890625 201.55859375 C-95.26577501 178.13349125 -105.38918804 146.17572214 -104.69921875 114.50390625 C-103.99096747 96.73742301 -99.47518245 79.46067396 -91.44921875 63.6015625 C-91.00964844 62.71210937 -90.57007813 61.82265625 -90.1171875 60.90625 C-76.91710577 35.37881921 -54.13460674 15.0742772 -27.44921875 4.6015625 C-26.63568939 4.26918579 -25.82216003 3.93680908 -24.98397827 3.59436035 C-16.61221955 0.46122554 -8.86682751 -0.01998876 0 0 Z M-8.44921875 41.6015625 C-10.02896484 42.1275 -10.02896484 42.1275 -11.640625 42.6640625 C-32.7445659 50.58835843 -47.61706359 67.33419628 -57.26171875 87.1640625 C-65.26314105 105.61852133 -65.70879933 126.89742475 -59.34765625 145.890625 C-58.15787726 148.86123447 -56.85426917 151.72704675 -55.44921875 154.6015625 C-55.03027344 155.50132812 -54.61132812 156.40109375 -54.1796875 157.328125 C-44.61300063 176.46149874 -27.39718603 190.04434376 -7.50195312 197.31298828 C13.45542818 204.28629467 35.36168395 202.35259929 55.140625 192.8828125 C76.01682853 181.94957185 90.4782089 164.51509514 97.67578125 142.09765625 C103.52570797 119.62606275 100.4932648 97.72634746 89.30078125 77.4140625 C85.70188077 71.4837004 81.36678442 66.56508288 76.55078125 61.6015625 C76.01066406 60.98796875 75.47054687 60.374375 74.9140625 59.7421875 C63.0965956 46.76381075 44.26796765 38.84411984 26.95117188 37.38208008 C14.58318998 36.83379687 3.2976256 37.65566119 -8.44921875 41.6015625 Z " fill="#FFFFFF" transform="translate(237.44921875,50.3984375)"/>
<path d="M0 0 C5.24906912 5.38182768 6.4632647 11.0819378 6.46099854 18.43579102 C6.44035339 19.46631592 6.41970825 20.49684082 6.3984375 21.55859375 C6.39277771 22.63488037 6.38711792 23.71116699 6.38128662 24.82006836 C6.35902484 28.2333764 6.30884602 31.64560684 6.2578125 35.05859375 C6.23773439 37.38279726 6.21948592 39.70701735 6.203125 42.03125 C6.15919359 47.70739444 6.09238384 53.38291708 6.0078125 59.05859375 C6.57886719 59.05193192 7.14992188 59.04527008 7.73828125 59.03840637 C13.70843854 58.97178045 19.67848933 58.92668051 25.64892578 58.89379883 C27.87390435 58.87875863 30.09885351 58.85832129 32.32373047 58.83227539 C35.53099856 58.7956824 38.73787295 58.77881925 41.9453125 58.765625 C42.93208984 58.75014114 43.91886719 58.73465729 44.93554688 58.71870422 C52.35228435 58.71691708 57.6403313 60.0026198 63.96411133 63.86352539 C67.93184894 68.12513438 66.76180547 73.9713956 66.6953125 79.49609375 C66.72302734 80.72392578 66.75074219 81.95175781 66.77929688 83.21679688 C66.75560418 91.92149238 66.75560418 91.92149238 64.76416016 94.94970703 C63.21484375 96.28125 63.21484375 96.28125 60.0078125 98.05859375 C59.07464203 98.60155594 59.07464203 98.60155594 58.12261963 99.15548706 C55.58701415 100.23829137 53.71702405 100.29954936 50.96386719 100.28564453 C49.46276398 100.28541794 49.46276398 100.28541794 47.93133545 100.28518677 C46.85829163 100.2748642 45.7852478 100.26454163 44.6796875 100.25390625 C43.57554504 100.25107635 42.47140259 100.24824646 41.33380127 100.24533081 C37.8083613 100.23413864 34.28317565 100.2090355 30.7578125 100.18359375 C28.36719117 100.17356272 25.97656586 100.16443708 23.5859375 100.15625 C17.72647577 100.13420245 11.86716231 100.10073428 6.0078125 100.05859375 C6.01891556 100.66723267 6.03001862 101.27587158 6.04145813 101.9029541 C6.15244506 108.26230125 6.22764248 114.62137135 6.2824707 120.98144531 C6.30754825 123.35200179 6.34161882 125.72248145 6.38500977 128.09277344 C6.44595647 131.5086568 6.474091 134.92351411 6.49609375 138.33984375 C6.52190018 139.39224243 6.5477066 140.44464111 6.57429504 141.52893066 C6.57687403 148.36082543 5.40456751 152.75811846 1.0078125 158.05859375 C-2.776396 161.84280225 -9.13362846 160.64815764 -14.2421875 160.74609375 C-15.47066406 160.81248047 -16.69914062 160.87886719 -17.96484375 160.94726562 C-26.81889914 161.09595236 -26.81889914 161.09595236 -30.15429688 158.14697266 C-33.6519253 153.05201035 -35.12224159 148.43871645 -35.10571289 142.29003906 C-35.10563736 141.34936584 -35.10556183 140.40869263 -35.10548401 139.43951416 C-35.10032272 138.43209167 -35.09516144 137.42466919 -35.08984375 136.38671875 C-35.0884288 135.34916443 -35.08701385 134.31161011 -35.08555603 133.24261475 C-35.07996197 129.93124499 -35.06741053 126.61994304 -35.0546875 123.30859375 C-35.04967173 121.06250098 -35.04510896 118.81640714 -35.04101562 116.5703125 C-35.02999449 111.06638315 -35.01326224 105.56249329 -34.9921875 100.05859375 C-35.58829834 100.0674762 -36.18440918 100.07635864 -36.79858398 100.08551025 C-43.02822233 100.17431447 -49.25767952 100.2344648 -55.48779297 100.27832031 C-57.80980743 100.29837952 -60.13177173 100.32563366 -62.45361328 100.36035156 C-65.79993095 100.40911916 -69.14557809 100.43162018 -72.4921875 100.44921875 C-73.5227124 100.46986389 -74.5532373 100.49050903 -75.61499023 100.51177979 C-82.96884345 100.51404595 -88.66895357 99.29985037 -94.05078125 94.05078125 C-98.05710577 87.89942745 -100.04711062 82.22313039 -98.54296875 74.859375 C-96.58309612 68.91178465 -93.37754803 64.47033773 -87.9296875 61.24609375 C-83.91769047 59.62422261 -80.64154006 58.93318344 -76.31542969 58.94506836 C-75.39477722 58.94514389 -74.47412476 58.94521942 -73.52557373 58.94529724 C-72.54002502 58.95045853 -71.55447632 58.95561981 -70.5390625 58.9609375 C-69.52370422 58.96235245 -68.50834595 58.9637674 -67.46221924 58.96522522 C-64.22217858 58.97081859 -60.98220725 58.9833699 -57.7421875 58.99609375 C-55.54427183 59.00110961 -53.34635508 59.00567236 -51.1484375 59.00976562 C-45.76299721 59.02078585 -40.37759731 59.03751742 -34.9921875 59.05859375 C-34.99884933 58.50006714 -35.00551117 57.94154053 -35.01237488 57.36608887 C-35.0790127 51.52569363 -35.12410558 45.68540732 -35.15698242 39.84472656 C-35.17202049 37.6682496 -35.19245623 35.4918027 -35.21850586 33.31542969 C-35.2551084 30.17765867 -35.27196411 27.04029015 -35.28515625 23.90234375 C-35.30064011 22.93744019 -35.31612396 21.97253662 -35.33207703 20.97839355 C-35.33387098 13.6919146 -34.20957151 7.68786689 -29.6796875 1.74609375 C-20.91712864 -7.01646511 -9.88283246 -6.43660491 0 0 Z " fill="#FFFFFF" transform="translate(394.9921875,300.94140625)"/>
</svg>
