<svg width="134" height="16" viewBox="0 0 134 16" fill="none" xmlns="http://www.w3.org/2000/svg">
<path d="M61.9031 9.69776C61.9031 8.70222 61.9031 7.70395 61.9031 6.7084C61.9086 4.68194 63.3853 3.78975 65.2044 4.83154C65.777 5.15795 66.1496 5.15251 66.6865 4.94035C68.3139 4.30113 69.9084 4.35281 71.3741 5.3674C71.996 5.79717 72.4453 5.73461 73.0781 5.33204C75.6534 3.69727 79.908 4.32017 80.0149 8.81102C80.056 10.4893 79.867 12.1486 79.9409 13.8187C80.0012 15.1842 78.9766 15.1107 78.0506 15.1515C77.0616 15.195 76.3465 14.9938 76.3739 13.7697C76.4068 12.2764 76.3739 10.7804 76.3273 9.28703C76.2945 8.30236 75.9575 7.41018 74.7986 7.3993C73.6124 7.38842 72.9521 8.17996 72.8781 9.30063C72.785 10.745 72.7713 12.2002 72.8398 13.6473C72.9302 15.5269 71.4891 14.9557 70.5522 15.1053C69.5029 15.2739 69.2289 14.5966 69.2454 13.6881C69.2673 12.4641 69.2728 11.24 69.2454 10.0187C69.207 8.35948 68.5139 7.37482 67.4564 7.40202C66.3715 7.42922 65.703 8.41661 65.6921 10.0215C65.6838 11.2455 65.7003 12.4695 65.6811 13.6908C65.6537 15.6629 64.0318 14.7653 63.114 15.0155C62.2346 15.2549 61.925 14.5477 61.9141 13.7779C61.8949 12.4178 61.9086 11.0605 61.9086 9.70048C61.9059 9.70048 61.9031 9.70048 61.9004 9.70048L61.9031 9.69776Z" fill="#522E9A"/>
<path d="M4.75328 1.53498C6.48473 1.6193 8.48193 1.37449 10.3942 2.28572C13.0708 3.55872 14.4571 6.26791 13.9804 9.65441C13.6078 12.2902 11.3284 14.4744 8.57782 14.8362C6.2272 15.1435 3.86563 15.1843 1.49858 15.168C0.479437 15.1599 -0.0136982 14.7818 0.0191775 13.7209C0.0602721 12.3636 0.0547928 11.0063 0.0246568 9.64897C0.00273964 8.70782 0.441082 8.33245 1.3479 8.37598C1.80268 8.39774 2.25746 8.38413 2.71224 8.38685C3.5177 8.38957 3.87111 8.75135 3.75331 9.58369C3.6903 10.0243 3.70399 10.4868 3.75331 10.9328C3.84098 11.7162 4.20809 12.1814 5.11217 12.0345C5.6464 11.9474 6.19981 11.9583 6.745 11.9311C8.75589 11.8332 10.3147 10.3181 10.3613 8.41406C10.4106 6.44472 8.87918 4.72019 6.84636 4.61139C5.07655 4.51619 3.29579 4.52434 1.52324 4.57603C0.38355 4.60867 0 4.15985 0 3.05822C0 1.97019 0.353414 1.45882 1.49858 1.5241C2.49581 1.58122 3.50126 1.53498 4.75328 1.53498Z" fill="#522E9A"/>
<path d="M94.4816 10.8893C95.1282 9.06953 95.6131 7.62517 96.1583 6.19985C96.3884 5.59328 96.435 4.76093 97.2761 4.64125C97.9747 4.54061 98.8322 4.28764 99.3554 4.86701C99.791 5.34847 99.2568 5.97137 99.0705 6.50994C98.2322 8.90361 97.3144 11.2701 96.5528 13.6882C96.1199 15.0619 95.1583 15.1271 94.0022 15.1707C92.7693 15.2169 92.2625 14.5151 92.0516 13.5033C91.7831 12.2003 91.1228 11.0634 90.3831 9.75499C89.953 10.8893 89.5037 12.0181 89.101 13.1633C88.4736 14.9395 88.0763 15.1924 86.2271 15.1625C85.1997 15.1462 84.671 14.6865 84.3477 13.7399C83.46 11.1259 82.5313 8.52552 81.567 5.93601C81.2081 4.9731 81.4574 4.60861 82.4793 4.56508C84.3176 4.48348 84.534 4.60589 85.0983 6.3821C85.4545 7.50277 85.8189 8.62344 86.1942 9.73867C86.2901 10.0243 86.323 10.4405 86.7065 10.4568C87.0955 10.4758 87.1695 10.0596 87.2736 9.77948C87.7613 8.46568 88.29 7.16004 88.6654 5.8136C88.9393 4.83438 89.4845 4.52157 90.4434 4.55421C91.3365 4.58413 92.1036 4.53516 92.4378 5.6912C92.9118 7.32868 93.4871 8.94985 94.4789 10.8865L94.4816 10.8893Z" fill="#522E9A"/>
<path d="M35.3197 7.75558C35.3197 5.85696 35.3636 3.95563 35.306 2.05701C35.2649 0.656174 36.1663 0.726892 37.1169 0.718732C38.0895 0.710572 38.9799 0.691531 38.9005 2.07877C38.8484 2.9764 38.6128 4.08075 39.0265 4.73901C39.6429 5.71824 40.5662 4.5214 41.4154 4.5078C43.7222 4.46428 45.4838 5.27487 46.4098 7.10548C47.4317 9.12378 47.1659 11.9146 45.8043 13.5113C44.4784 15.0671 42.2236 15.6057 40.0703 14.8359C39.484 14.6265 38.9854 14.5558 38.3827 14.8359C37.906 15.0563 37.3306 15.0916 36.7909 15.1406C35.7718 15.2358 35.2869 14.787 35.306 13.7261C35.3444 11.7378 35.317 9.74667 35.3197 7.75558ZM43.503 9.69227C43.4674 8.31591 42.3332 7.27956 40.9141 7.32308C39.6977 7.36116 38.758 8.53896 38.7854 9.98876C38.81 11.2998 39.947 12.426 41.2209 12.4042C42.4757 12.3824 43.5414 11.1176 43.503 9.69227Z" fill="#522E9A"/>
<path d="M133.889 4.65217C133.069 5.91156 132.05 6.67046 131.217 7.59529C129.938 9.01789 129.93 9.1947 131.1 10.6717C131.889 11.6645 132.691 12.6465 133.467 13.6502C133.705 13.9576 134.163 14.2704 133.941 14.6893C133.724 15.1 133.193 14.8389 132.812 14.9259C130.639 15.4237 129.483 14.0419 128.316 12.6002C127.982 12.1895 127.779 11.3544 127.026 11.64C126.303 11.9148 125.818 12.6383 125.968 13.3809C126.33 15.1707 125.152 14.8633 124.111 14.9313C122.864 15.0129 122.563 14.42 122.577 13.302C122.62 9.63807 122.582 5.97412 122.599 2.31018C122.604 0.816855 122.84 0.71349 124.716 0.740691C126.034 0.759732 126.163 1.48055 126.097 2.52234C126.007 3.96126 126.001 5.40291 125.966 6.84455C125.957 7.20904 125.927 7.62521 126.297 7.81834C126.787 8.0713 127.023 7.59529 127.305 7.3396C127.776 6.91255 128.286 6.50182 128.653 5.99588C129.998 4.14079 131.859 4.576 133.886 4.65488L133.889 4.65217Z" fill="#522E9A"/>
<path d="M27.2926 10.0783C27.2926 12.8773 24.5392 15.309 21.3804 15.3009C18.0627 15.29 15.3943 12.8827 15.3751 9.87976C15.3532 6.58846 17.8792 4.49128 21.8708 4.48584C25.0242 4.48312 27.2926 6.82239 27.2926 10.0783ZM23.5804 9.8036C23.5941 8.33747 22.6982 7.39905 21.2544 7.36913C20.049 7.34465 19.049 8.41364 19.0052 9.77367C18.9586 11.1691 19.9832 12.3686 21.2243 12.3714C22.6434 12.3714 23.5667 11.3704 23.5804 9.8036Z" fill="#522E9A"/>
<path d="M54.1592 15.1921C50.8059 15.1758 48.2279 12.7794 48.2881 9.73563C48.3539 6.49058 50.8333 4.32812 54.6222 4.52124C58.2632 4.70621 60.033 6.71362 60.1864 10.1436C60.3097 12.9181 57.4468 15.2057 54.1592 15.1894V15.1921ZM56.5893 9.91516C56.5564 8.37287 55.5098 7.3066 54.0551 7.32836C52.7921 7.3474 51.8415 8.48711 51.8771 9.93691C51.9127 11.3731 52.9072 12.4203 54.2277 12.4149C55.4907 12.4095 56.6167 11.2154 56.5893 9.91516Z" fill="#522E9A"/>
<path d="M105.945 15.1786C102.625 15.1351 100.102 12.7714 100.167 9.76023C100.233 6.58862 102.726 4.51048 106.408 4.55944C109.592 4.60024 111.959 6.87695 111.948 9.88807C111.937 13.0026 109.416 15.2249 105.945 15.1813V15.1786ZM108.372 9.98056C108.394 8.32675 107.548 7.30944 106.162 7.32304C104.625 7.33664 103.737 8.24242 103.743 9.78471C103.748 11.3216 104.707 12.4313 106.036 12.4395C107.345 12.4449 108.353 11.3841 108.372 9.98328V9.98056Z" fill="#522E9A"/>
<path d="M32.8178 4.83153C32.8178 7.89978 32.8123 10.968 32.8205 14.0363C32.8205 14.6456 32.5356 14.9611 31.9438 15.0318C31.8534 15.0427 31.763 15.0427 31.6726 15.0509C29.1275 15.293 29.0563 15.2331 29.0563 12.6926C29.0563 9.2027 29.1111 5.71284 29.0398 2.2257C29.0097 0.710615 29.8754 0.707895 30.9713 0.699734C32.0945 0.691574 32.9959 0.762297 32.8753 2.24746C32.8068 3.10156 32.8616 3.96927 32.8616 4.82881C32.8452 4.82881 32.8315 4.82881 32.8151 4.82881L32.8178 4.83153Z" fill="#522E9A"/>
<path d="M115.432 14.9231C114.276 15.1408 113.799 14.5695 113.84 13.2612C113.909 11.0008 113.854 8.74041 113.865 6.47731C113.876 4.73374 115.558 3.75451 116.983 4.8371C117.739 5.41103 118.142 5.14175 118.753 4.91054C120.574 4.21692 121.139 4.65485 120.947 6.53987C120.881 7.18725 120.61 7.46469 119.95 7.57894C118.026 7.91623 117.437 8.65609 117.413 10.6145C117.402 11.4741 117.413 12.3336 117.41 13.1932C117.402 14.8415 117.311 14.9232 115.435 14.9259L115.432 14.9231Z" fill="#522E9A"/>
</svg>
