<svg width="215" height="83" viewBox="0 0 215 83" fill="none" xmlns="http://www.w3.org/2000/svg">
<path d="M99.3208 74.0094C99.3208 72.4121 99.3208 70.8104 99.3208 69.2131C99.3296 65.9617 101.699 64.5302 104.618 66.2017C105.536 66.7254 106.134 66.7167 106.996 66.3763C109.607 65.3507 112.165 65.4336 114.517 67.0615C115.515 67.751 116.235 67.6507 117.251 67.0047C121.383 64.3818 128.209 65.3812 128.381 72.5867C128.447 75.2795 128.143 77.9417 128.262 80.6214C128.359 82.8122 126.715 82.6944 125.229 82.7599C123.642 82.8297 122.495 82.5067 122.539 80.5428C122.592 78.1468 122.539 75.7464 122.464 73.3504C122.411 71.7706 121.871 70.3391 120.011 70.3216C118.108 70.3042 117.049 71.5742 116.93 73.3723C116.78 75.6897 116.759 78.0246 116.868 80.3464C117.013 83.3621 114.701 82.4456 113.198 82.6857C111.514 82.9563 111.075 81.8696 111.101 80.4119C111.136 78.4479 111.145 76.484 111.101 74.5244C111.04 71.8622 109.928 70.2823 108.231 70.326C106.49 70.3696 105.418 71.9539 105.4 74.5288C105.387 76.4927 105.413 78.4567 105.382 80.4162C105.339 83.5804 102.736 82.1401 101.264 82.5417C99.8527 82.9257 99.356 81.791 99.3384 80.5559C99.3076 78.3738 99.3296 76.196 99.3296 74.0138C99.3252 74.0138 99.3208 74.0138 99.3164 74.0138L99.3208 74.0094Z" fill="#522E9A"/>
<path d="M7.62653 60.9123C10.4046 61.0476 13.6091 60.6548 16.6773 62.1169C20.9718 64.1594 23.1961 68.5062 22.4312 73.9398C21.8334 78.1688 18.1762 81.6733 13.7629 82.2538C9.99141 82.747 6.20232 82.8124 2.40444 82.7862C0.769246 82.7731 -0.0219785 82.1665 0.0307698 80.4644C0.0967052 78.2866 0.0879138 76.1088 0.0395612 73.9311C0.00439569 72.421 0.707706 71.8187 2.16268 71.8886C2.89237 71.9235 3.62205 71.9017 4.35174 71.906C5.64407 71.9104 6.21111 72.4908 6.0221 73.8263C5.921 74.5333 5.94298 75.2753 6.0221 75.991C6.16276 77.2479 6.75178 77.9942 8.20236 77.7586C9.05952 77.6189 9.94745 77.6364 10.8222 77.5927C14.0486 77.4356 16.5498 75.0047 16.6245 71.9497C16.7036 68.7899 14.2464 66.0229 10.9848 65.8484C8.14522 65.6956 5.28802 65.7087 2.444 65.7916C0.615397 65.844 0 65.1239 0 63.3563C0 61.6106 0.567044 60.7901 2.40444 60.8949C4.00448 60.9865 5.61769 60.9123 7.62653 60.9123Z" fill="#522E9A"/>
<path d="M151.595 75.9212C152.632 73.0015 153.41 70.6841 154.285 68.3972C154.654 67.4239 154.729 66.0884 156.078 65.8964C157.199 65.7349 158.575 65.329 159.415 66.2586C160.114 67.0311 159.256 68.0306 158.958 68.8947C157.612 72.7353 156.14 76.5322 154.918 80.4121C154.223 82.6161 152.68 82.7208 150.825 82.7906C148.847 82.8648 148.034 81.7388 147.696 80.1153C147.265 78.0248 146.206 76.2005 145.019 74.1013C144.329 75.9212 143.608 77.7324 142.962 79.5698C141.955 82.4197 141.318 82.8255 138.351 82.7775C136.702 82.7514 135.854 82.0138 135.335 80.495C133.911 76.3009 132.421 72.1286 130.873 67.9738C130.298 66.4289 130.698 65.844 132.337 65.7742C135.287 65.6433 135.634 65.8397 136.539 68.6896C137.111 70.4877 137.696 72.2858 138.298 74.0751C138.452 74.5334 138.504 75.2011 139.12 75.2273C139.744 75.2578 139.863 74.5901 140.03 74.1406C140.812 72.0326 141.66 69.9378 142.263 67.7774C142.702 66.2063 143.577 65.7044 145.115 65.7568C146.548 65.8048 147.779 65.7262 148.316 67.581C149.076 70.2083 149.999 72.8095 151.59 75.9169L151.595 75.9212Z" fill="#522E9A"/>
<path d="M56.6687 70.8936C56.6687 67.8473 56.739 64.7967 56.6467 61.7504C56.5808 59.5028 58.027 59.6162 59.5523 59.6032C61.1127 59.5901 62.5413 59.5595 62.4139 61.7853C62.3303 63.2255 61.9523 64.9974 62.6161 66.0536C63.6051 67.6247 65.0864 65.7045 66.4491 65.6826C70.1503 65.6128 72.9767 66.9134 74.4624 69.8505C76.102 73.0889 75.6757 77.5666 73.491 80.1285C71.3635 82.6249 67.7458 83.489 64.2908 82.2539C63.3501 81.9178 62.5501 81.8044 61.5831 82.2539C60.8182 82.6074 59.8951 82.6641 59.0292 82.7427C57.394 82.8954 56.6159 82.1753 56.6467 80.4733C56.7082 77.283 56.6643 74.0883 56.6687 70.8936ZM69.7986 74.001C69.7415 71.7927 67.9217 70.1299 65.6447 70.1997C63.693 70.2608 62.1853 72.1505 62.2292 74.4767C62.2688 76.5803 64.093 78.3871 66.137 78.3522C68.1502 78.3173 69.8602 76.2879 69.7986 74.001Z" fill="#522E9A"/>
<path d="M214.822 65.9139C213.508 67.9345 211.873 69.1522 210.537 70.636C208.484 72.9186 208.471 73.2023 210.348 75.5721C211.614 77.1651 212.901 78.7406 214.145 80.351C214.528 80.8442 215.262 81.3461 214.906 82.0182C214.559 82.6772 213.706 82.2582 213.095 82.3979C209.609 83.1965 207.754 80.9795 205.882 78.6664C205.345 78.0074 205.02 76.6675 203.811 77.1258C202.651 77.5666 201.873 78.7275 202.114 79.9189C202.695 82.7906 200.805 82.2975 199.134 82.4066C197.134 82.5375 196.651 81.5861 196.673 79.7924C196.743 73.9136 196.681 68.0349 196.708 62.1562C196.717 59.7602 197.095 59.5944 200.106 59.638C202.22 59.6686 202.427 60.8251 202.321 62.4966C202.176 64.8053 202.167 67.1184 202.11 69.4315C202.097 70.0163 202.049 70.6841 202.642 70.9939C203.429 71.3998 203.807 70.6361 204.26 70.2258C205.016 69.5406 205.833 68.8816 206.422 68.0698C208.581 65.0934 211.565 65.7917 214.818 65.9182L214.822 65.9139Z" fill="#522E9A"/>
<path d="M43.7895 74.6205C43.7895 79.1113 39.3718 83.013 34.3036 82.9999C28.9804 82.9825 24.699 79.1201 24.6682 74.3019C24.633 69.0211 28.6859 65.6562 35.0904 65.6475C40.1498 65.6431 43.7895 69.3964 43.7895 74.6205ZM37.8333 74.1797C37.8553 71.8273 36.4179 70.3216 34.1014 70.2736C32.1672 70.2344 30.5628 71.9495 30.4925 74.1317C30.4178 76.3706 32.0618 78.2952 34.053 78.2996C36.33 78.2996 37.8113 76.6935 37.8333 74.1797Z" fill="#522E9A"/>
<path d="M86.8982 82.8254C81.5179 82.7992 77.3815 78.9542 77.4782 74.0706C77.5837 68.8639 81.5618 65.3943 87.6411 65.7042C93.4829 66.001 96.3226 69.2218 96.5687 74.7252C96.7665 79.1768 92.173 82.8472 86.8982 82.821V82.8254ZM90.7972 74.3586C90.7444 71.884 89.0653 70.1732 86.7312 70.2082C84.7047 70.2387 83.1794 72.0673 83.2366 74.3935C83.2937 76.6979 84.8894 78.3781 87.0081 78.3694C89.0345 78.3607 90.8411 76.4447 90.7972 74.3586Z" fill="#522E9A"/>
<path d="M169.985 82.8038C164.658 82.7339 160.609 78.9414 160.715 74.1101C160.82 69.0213 164.82 65.687 170.728 65.7655C175.836 65.831 179.634 69.4839 179.616 74.3152C179.599 79.3123 175.555 82.878 169.985 82.8081V82.8038ZM173.88 74.4636C173.915 71.8101 172.557 70.1778 170.333 70.1996C167.867 70.2215 166.443 71.6748 166.451 74.1493C166.46 76.6152 167.999 78.3958 170.13 78.4089C172.232 78.4176 173.849 76.7156 173.88 74.4679V74.4636Z" fill="#522E9A"/>
<path d="M52.6566 66.2017C52.6566 71.1247 52.6478 76.0476 52.661 80.9705C52.661 81.9481 52.2039 82.4544 51.2544 82.5679C51.1094 82.5853 50.9643 82.5853 50.8192 82.5984C46.7356 82.9869 46.6213 82.8908 46.6213 78.8146C46.6213 73.2152 46.7093 67.6158 46.595 62.0207C46.5466 59.5898 47.9357 59.5855 49.6939 59.5724C51.4962 59.5593 52.9424 59.6727 52.7489 62.0557C52.6391 63.426 52.727 64.8183 52.727 66.1974C52.7006 66.1974 52.6786 66.1974 52.6522 66.1974L52.6566 66.2017Z" fill="#522E9A"/>
<path d="M185.208 82.3934C183.353 82.7425 182.588 81.826 182.654 79.7268C182.764 76.1001 182.676 72.4733 182.694 68.8422C182.711 66.0447 185.41 64.4735 187.696 66.2105C188.909 67.1314 189.556 66.6993 190.536 66.3284C193.459 65.2155 194.364 65.9181 194.057 68.9426C193.951 69.9813 193.516 70.4265 192.457 70.6098C189.371 71.1509 188.426 72.338 188.386 75.4803C188.369 76.8594 188.386 78.2386 188.382 79.6177C188.369 82.2624 188.224 82.3934 185.213 82.3977L185.208 82.3934Z" fill="#522E9A"/>
<path d="M130.61 12.8226C130.598 13.0393 130.674 13.5811 130.526 14.061C130.073 15.5355 130.786 16.2437 132.055 16.9442C135.274 18.7128 135.923 22.0217 133.661 24.8198C130.254 29.0304 126.798 33.2024 123.339 37.3743C122.126 38.8372 120.589 39.6073 118.571 39.8279C112.757 40.4626 106.972 41.3063 101.171 42.0261C100.254 42.1383 99.7732 42.6647 99.2888 43.2955C97.9755 44.9983 96.6583 46.705 95.3131 48.3846C94.3281 49.6114 93.095 50.1184 91.6857 49.0928C90.2804 48.0711 90.6927 46.8134 91.5495 45.6872C93.2832 43.4038 95.0848 41.1631 96.8585 38.9068C97.5071 38.0786 98.4079 37.7458 99.4449 37.622C104.926 36.9679 110.399 36.2404 115.888 35.6482C118.154 35.4044 119.808 34.5569 121.201 32.7302C123.768 29.3633 126.61 26.1937 129.305 22.9196C129.725 22.4088 130.582 21.7508 129.793 21.12C128.952 20.4466 128.524 21.4916 128.108 21.9598C125.685 24.6998 123.295 27.4669 120.933 30.2572C120.132 31.2015 119.199 31.7356 117.938 31.9755C115.528 32.44 113.166 33.1288 110.763 33.6281C107.953 34.2124 105.346 32.8076 104.71 30.4624C104.033 27.97 105.378 25.7951 108.197 24.754C109.066 24.4328 109.923 24.0651 110.747 23.651C111.344 23.3531 112.537 23.3298 112.241 22.4397C111.901 21.418 110.836 22.0682 110.143 22.223C107.753 22.7571 105.418 23.713 103.008 23.9297C97.6272 24.4134 94.6965 28.0087 91.6496 31.5963C89.7879 33.7867 87.8701 35.9308 85.9563 38.0786C85.568 38.516 85.1356 38.9378 84.6511 39.2668C83.7663 39.8627 82.7894 40.0408 81.8805 39.3248C80.9196 38.5701 80.7715 37.5523 81.308 36.5345C81.6643 35.8611 82.2128 35.2728 82.7333 34.6923C86.0044 31.0429 89.2794 27.3934 92.5865 23.7788C93.4833 22.7958 93.5674 22.0063 92.9869 20.7059C91.4495 17.2538 90.5046 13.674 91.3814 9.80009C93.3032 1.29756 101.271 -2.39835 109.298 1.63426C110.315 2.14511 111.108 2.35022 112.245 1.7968C121.582 -2.76987 130.406 2.41601 130.598 12.8303L130.61 12.8226ZM111.72 28.3764C113.858 27.7998 116.457 28.4848 118.142 26.4917C119.744 24.5992 121.365 22.7184 122.987 20.8414C125.613 17.8073 126.342 14.2894 125.581 10.5006C124.528 5.27599 119.968 3.13584 115.015 5.4424C114.359 5.74814 113.65 6.03065 113.114 6.49119C111.58 7.79927 110.171 7.6406 108.645 6.4641C107.653 5.70169 106.459 5.24503 105.23 4.90833C101.13 3.78988 97.7393 5.39596 96.378 9.34729C95.281 12.5324 95.7415 15.6865 97.1868 18.7361C97.8194 20.0712 98.6442 20.4892 100.166 20.0828C103.561 19.1734 107.004 18.4303 110.419 17.606C113.138 16.9481 115.62 18.0201 116.725 20.3538C117.93 22.9041 117.225 25.3113 114.707 26.8903C113.774 27.4747 112.717 27.881 111.716 28.3687L111.72 28.3764Z" fill="#522E9A"/>
</svg>
