<svg width="27" height="24" viewBox="0 0 27 24" fill="none" xmlns="http://www.w3.org/2000/svg">
<path d="M24.805 6.19912C24.799 6.30389 24.837 6.56583 24.7629 6.79783C24.5367 7.51068 24.8931 7.85307 25.5276 8.19172C27.1371 9.04677 27.4615 10.6465 26.3304 11.9992C24.6268 14.0348 22.8992 16.0518 21.1696 18.0687C20.563 18.7759 19.7943 19.1482 18.7854 19.2549C15.8787 19.5617 12.986 19.9696 10.0853 20.3176C9.62683 20.3719 9.38661 20.6263 9.14438 20.9313C8.48777 21.7545 7.82915 22.5796 7.15653 23.3916C6.66407 23.9847 6.04749 24.2298 5.34284 23.734C4.64018 23.2401 4.84637 22.632 5.27477 22.0876C6.14158 20.9837 7.04242 19.9004 7.92925 18.8096C8.25355 18.4092 8.70397 18.2483 9.22245 18.1884C11.963 17.8722 14.6996 17.5205 17.4441 17.2342C18.5772 17.1163 19.4039 16.7066 20.1006 15.8235C21.3838 14.1957 22.8051 12.6634 24.1524 11.0805C24.3626 10.8336 24.791 10.5155 24.3966 10.2105C23.9762 9.88497 23.762 10.3901 23.5538 10.6165C22.3427 11.9412 21.1476 13.2789 19.9665 14.6279C19.5661 15.0844 19.0997 15.3426 18.4691 15.4586C17.2639 15.6832 16.0828 16.0162 14.8817 16.2576C13.4764 16.5401 12.1732 15.8609 11.8549 14.7271C11.5166 13.5222 12.1892 12.4707 13.5985 11.9674C14.0329 11.8121 14.4613 11.6343 14.8737 11.4341C15.172 11.2901 15.7686 11.2789 15.6204 10.8485C15.4503 10.3546 14.9178 10.6689 14.5714 10.7438C13.3763 11.0019 12.2092 11.4641 11.0041 11.5689C8.3136 11.8027 6.84824 13.5409 5.32482 15.2753C4.39395 16.3343 3.43506 17.3708 2.47817 18.4092C2.28399 18.6206 2.06778 18.8246 1.82556 18.9836C1.38314 19.2717 0.894689 19.3578 0.440266 19.0117C-0.0401819 18.6468 -0.114249 18.1547 0.154001 17.6627C0.332167 17.3371 0.606422 17.0527 0.866664 16.7721C2.50219 15.0077 4.13972 13.2434 5.79326 11.4959C6.24167 11.0207 6.28371 10.639 5.99344 10.0103C5.22473 8.3414 4.75229 6.61074 5.1907 4.73787C6.15159 0.62731 10.1353 -1.15949 14.149 0.790086C14.6575 1.03706 15.0539 1.13622 15.6224 0.868668C20.2908 -1.3391 24.7029 1.16803 24.799 6.20286L24.805 6.19912ZM15.3602 13.7186C16.4292 13.4398 17.7284 13.771 18.5712 12.8075C19.3719 11.8925 20.1827 10.9832 20.9934 10.0758C22.3066 8.60895 22.671 6.90822 22.2906 5.07652C21.7641 2.55069 19.484 1.51603 17.0077 2.63114C16.6794 2.77895 16.3251 2.91553 16.0568 3.13818C15.2901 3.77057 14.5855 3.69386 13.8227 3.12508C13.3263 2.7565 12.7297 2.53572 12.1151 2.37294C10.0652 1.83223 8.36966 2.60869 7.68902 4.51897C7.14051 6.05879 7.37073 7.58365 8.0934 9.05799C8.4097 9.70348 8.82208 9.90555 9.58279 9.7091C11.2804 9.26941 13.002 8.91018 14.7096 8.51166C16.0688 8.19359 17.31 8.71186 17.8625 9.84007C18.4651 11.073 18.1127 12.2368 16.8536 13.0002C16.3871 13.2827 15.8586 13.4791 15.3582 13.7149L15.3602 13.7186Z" fill="#522E9A"/>
</svg>
