<svg width="179" height="24" viewBox="0 0 179 24" fill="none" xmlns="http://www.w3.org/2000/svg">
<path d="M24.805 6.19912C24.799 6.30389 24.837 6.56583 24.7629 6.79783C24.5367 7.51068 24.8931 7.85307 25.5276 8.19172C27.1371 9.04677 27.4615 10.6465 26.3304 11.9992C24.6268 14.0348 22.8992 16.0518 21.1696 18.0687C20.563 18.7759 19.7943 19.1482 18.7854 19.2549C15.8787 19.5617 12.986 19.9696 10.0853 20.3176C9.62683 20.3719 9.38661 20.6263 9.14438 20.9313C8.48777 21.7545 7.82915 22.5796 7.15653 23.3916C6.66407 23.9847 6.04749 24.2298 5.34284 23.734C4.64018 23.2401 4.84637 22.632 5.27477 22.0876C6.14158 20.9837 7.04242 19.9004 7.92925 18.8096C8.25355 18.4092 8.70397 18.2483 9.22245 18.1884C11.963 17.8722 14.6996 17.5205 17.4441 17.2342C18.5772 17.1163 19.4039 16.7066 20.1006 15.8235C21.3838 14.1957 22.8051 12.6634 24.1524 11.0805C24.3626 10.8336 24.791 10.5155 24.3966 10.2105C23.9762 9.88497 23.762 10.3901 23.5538 10.6165C22.3427 11.9412 21.1476 13.2789 19.9665 14.6279C19.5661 15.0844 19.0997 15.3426 18.4691 15.4586C17.2639 15.6832 16.0828 16.0162 14.8817 16.2576C13.4764 16.5401 12.1732 15.8609 11.8549 14.7271C11.5166 13.5222 12.1892 12.4707 13.5985 11.9674C14.0329 11.8121 14.4613 11.6343 14.8737 11.4341C15.172 11.2901 15.7686 11.2789 15.6204 10.8485C15.4503 10.3546 14.9178 10.6689 14.5714 10.7438C13.3763 11.0019 12.2092 11.4641 11.0041 11.5689C8.3136 11.8027 6.84824 13.5409 5.32482 15.2753C4.39395 16.3343 3.43506 17.3708 2.47817 18.4092C2.28399 18.6206 2.06778 18.8246 1.82556 18.9836C1.38314 19.2717 0.894689 19.3578 0.440266 19.0117C-0.0401819 18.6468 -0.114249 18.1547 0.154001 17.6627C0.332167 17.3371 0.606422 17.0527 0.866664 16.7721C2.50219 15.0077 4.13971 13.2434 5.79326 11.4959C6.24167 11.0207 6.28371 10.639 5.99344 10.0103C5.22473 8.3414 4.75229 6.61074 5.1907 4.73788C6.15159 0.62731 10.1353 -1.15949 14.149 0.790086C14.6575 1.03706 15.0539 1.13622 15.6224 0.868668C20.2908 -1.3391 24.7029 1.16803 24.799 6.20286L24.805 6.19912ZM15.3602 13.7186C16.4292 13.4398 17.7284 13.771 18.5712 12.8075C19.3719 11.8925 20.1827 10.9832 20.9934 10.0758C22.3066 8.60895 22.671 6.90822 22.2906 5.07652C21.7641 2.55069 19.484 1.51603 17.0077 2.63114C16.6794 2.77895 16.3251 2.91553 16.0568 3.13818C15.2901 3.77057 14.5855 3.69386 13.8227 3.12508C13.3263 2.7565 12.7297 2.53572 12.1151 2.37294C10.0652 1.83223 8.36966 2.60869 7.68902 4.51897C7.14051 6.05879 7.37073 7.58365 8.0934 9.05799C8.4097 9.70348 8.82208 9.90555 9.58279 9.7091C11.2804 9.26941 13.002 8.91018 14.7096 8.51166C16.0688 8.19359 17.31 8.71186 17.8625 9.84007C18.4651 11.073 18.1127 12.2368 16.8536 13.0002C16.3871 13.2827 15.8586 13.4791 15.3582 13.7149L15.3602 13.7186Z" fill="#522E9A"/>
<path d="M106.903 13.6978C106.903 12.7022 106.903 11.7039 106.903 10.7084C106.909 8.68194 108.385 7.78975 110.204 8.83154C110.777 9.15795 111.15 9.15251 111.687 8.94035C113.314 8.30113 114.908 8.35281 116.374 9.3674C116.996 9.79717 117.445 9.73461 118.078 9.33204C120.653 7.69727 124.908 8.32017 125.015 12.811C125.056 14.4893 124.867 16.1486 124.941 17.8187C125.001 19.1842 123.977 19.1107 123.051 19.1515C122.062 19.195 121.347 18.9938 121.374 17.7697C121.407 16.2764 121.374 14.7804 121.327 13.287C121.294 12.3024 120.957 11.4102 119.799 11.3993C118.612 11.3884 117.952 12.18 117.878 13.3006C117.785 14.745 117.771 16.2002 117.84 17.6473C117.93 19.5269 116.489 18.9557 115.552 19.1053C114.503 19.2739 114.229 18.5966 114.245 17.6881C114.267 16.4641 114.273 15.24 114.245 14.0187C114.207 12.3595 113.514 11.3748 112.456 11.402C111.371 11.4292 110.703 12.4166 110.692 14.0215C110.684 15.2455 110.7 16.4695 110.681 17.6908C110.654 19.6629 109.032 18.7653 108.114 19.0155C107.235 19.2549 106.925 18.5477 106.914 17.7779C106.895 16.4178 106.909 15.0605 106.909 13.7005C106.906 13.7005 106.903 13.7005 106.9 13.7005L106.903 13.6978Z" fill="#522E9A"/>
<path d="M49.7533 5.53498C51.4847 5.6193 53.4819 5.37449 55.3942 6.28572C58.0708 7.55872 59.4571 10.2679 58.9804 13.6544C58.6078 16.2902 56.3284 18.4744 53.5778 18.8362C51.2272 19.1435 48.8656 19.1843 46.4986 19.168C45.4794 19.1599 44.9863 18.7818 45.0192 17.7209C45.0603 16.3636 45.0548 15.0063 45.0247 13.649C45.0027 12.7078 45.4411 12.3325 46.3479 12.376C46.8027 12.3977 47.2575 12.3841 47.7122 12.3869C48.5177 12.3896 48.8711 12.7513 48.7533 13.5837C48.6903 14.0243 48.704 14.4868 48.7533 14.9328C48.841 15.7162 49.2081 16.1814 50.1122 16.0345C50.6464 15.9474 51.1998 15.9583 51.745 15.9311C53.7559 15.8332 55.3147 14.3181 55.3613 12.4141C55.4106 10.4447 53.8792 8.72019 51.8464 8.61139C50.0766 8.51619 48.2958 8.52434 46.5232 8.57603C45.3835 8.60867 45 8.15985 45 7.05822C45 5.97019 45.3534 5.45882 46.4986 5.5241C47.4958 5.58122 48.5013 5.53498 49.7533 5.53498Z" fill="#522E9A"/>
<path d="M139.482 14.8893C140.128 13.0695 140.613 11.6252 141.158 10.1999C141.388 9.59328 141.435 8.76093 142.276 8.64125C142.975 8.54061 143.832 8.28764 144.355 8.86701C144.791 9.34847 144.257 9.97137 144.071 10.5099C143.232 12.9036 142.314 15.2701 141.553 17.6882C141.12 19.0619 140.158 19.1271 139.002 19.1707C137.769 19.2169 137.263 18.5151 137.052 17.5033C136.783 16.2003 136.123 15.0634 135.383 13.755C134.953 14.8893 134.504 16.0181 134.101 17.1633C133.474 18.9395 133.076 19.1924 131.227 19.1625C130.2 19.1462 129.671 18.6865 129.348 17.7399C128.46 15.1259 127.531 12.5255 126.567 9.93601C126.208 8.9731 126.457 8.60861 127.479 8.56508C129.318 8.48348 129.534 8.60589 130.098 10.3821C130.455 11.5028 130.819 12.6234 131.194 13.7387C131.29 14.0243 131.323 14.4405 131.707 14.4568C132.096 14.4758 132.17 14.0596 132.274 13.7795C132.761 12.4657 133.29 11.16 133.665 9.8136C133.939 8.83438 134.485 8.52157 135.443 8.55421C136.337 8.58413 137.104 8.53516 137.438 9.6912C137.912 11.3287 138.487 12.9499 139.479 14.8865L139.482 14.8893Z" fill="#522E9A"/>
<path d="M80.3197 11.7556C80.3197 9.85696 80.3636 7.95563 80.306 6.05701C80.2649 4.65617 81.1663 4.72689 82.1169 4.71873C83.0895 4.71057 83.9799 4.69153 83.9005 6.07877C83.8484 6.9764 83.6128 8.08075 84.0265 8.73901C84.6429 9.71824 85.5662 8.5214 86.4154 8.5078C88.7222 8.46428 90.4838 9.27487 91.4098 11.1055C92.4317 13.1238 92.1659 15.9146 90.8043 17.5113C89.4784 19.0671 87.2236 19.6057 85.0703 18.8359C84.484 18.6265 83.9854 18.5558 83.3827 18.8359C82.906 19.0563 82.3306 19.0916 81.7909 19.1406C80.7718 19.2358 80.2869 18.787 80.306 17.7261C80.3444 15.7378 80.317 13.7467 80.3197 11.7556ZM88.503 13.6923C88.4674 12.3159 87.3332 11.2796 85.9141 11.3231C84.6977 11.3612 83.758 12.539 83.7854 13.9888C83.81 15.2998 84.947 16.426 86.2209 16.4042C87.4757 16.3824 88.5414 15.1176 88.503 13.6923Z" fill="#522E9A"/>
<path d="M178.889 8.65217C178.069 9.91156 177.05 10.6705 176.217 11.5953C174.938 13.0179 174.93 13.1947 176.1 14.6717C176.889 15.6645 177.691 16.6465 178.467 17.6502C178.705 17.9576 179.163 18.2704 178.941 18.6893C178.724 19.1 178.193 18.8389 177.812 18.9259C175.639 19.4237 174.483 18.0419 173.316 16.6002C172.982 16.1895 172.779 15.3544 172.026 15.64C171.303 15.9148 170.818 16.6383 170.968 17.3809C171.33 19.1707 170.152 18.8633 169.111 18.9313C167.864 19.0129 167.563 18.42 167.577 17.302C167.62 13.6381 167.582 9.97412 167.599 6.31018C167.604 4.81685 167.84 4.71349 169.716 4.74069C171.034 4.75973 171.163 5.48055 171.097 6.52234C171.007 7.96126 171.001 9.40291 170.966 10.8445C170.957 11.209 170.927 11.6252 171.297 11.8183C171.787 12.0713 172.023 11.5953 172.305 11.3396C172.776 10.9126 173.286 10.5018 173.653 9.99588C174.998 8.14079 176.859 8.576 178.886 8.65488L178.889 8.65217Z" fill="#522E9A"/>
<path d="M72.2926 14.0783C72.2926 16.8773 69.5392 19.309 66.3804 19.3009C63.0627 19.29 60.3943 16.8827 60.3751 13.8798C60.3532 10.5885 62.8792 8.49128 66.8708 8.48584C70.0242 8.48312 72.2926 10.8224 72.2926 14.0783ZM68.5804 13.8036C68.5941 12.3375 67.6982 11.399 66.2544 11.3691C65.049 11.3446 64.049 12.4136 64.0052 13.7737C63.9586 15.1691 64.9832 16.3686 66.2243 16.3714C67.6434 16.3714 68.5667 15.3704 68.5804 13.8036Z" fill="#522E9A"/>
<path d="M99.1592 19.1921C95.8059 19.1758 93.2279 16.7794 93.2881 13.7356C93.3539 10.4906 95.8333 8.32812 99.6222 8.52124C103.263 8.70621 105.033 10.7136 105.186 14.1436C105.31 16.9181 102.447 19.2057 99.1592 19.1894V19.1921ZM101.589 13.9152C101.556 12.3729 100.51 11.3066 99.0551 11.3284C97.7921 11.3474 96.8415 12.4871 96.8771 13.9369C96.9127 15.3731 97.9072 16.4203 99.2277 16.4149C100.491 16.4095 101.617 15.2154 101.589 13.9152Z" fill="#522E9A"/>
<path d="M150.945 19.1786C147.625 19.1351 145.102 16.7714 145.167 13.7602C145.233 10.5886 147.726 8.51048 151.408 8.55944C154.592 8.60024 156.959 10.8769 156.948 13.8881C156.937 17.0026 154.416 19.2249 150.945 19.1813V19.1786ZM153.372 13.9806C153.394 12.3267 152.548 11.3094 151.162 11.323C149.625 11.3366 148.737 12.2424 148.743 13.7847C148.748 15.3216 149.707 16.4313 151.036 16.4395C152.345 16.4449 153.353 15.3841 153.372 13.9833V13.9806Z" fill="#522E9A"/>
<path d="M77.8178 8.83153C77.8178 11.8998 77.8123 14.968 77.8205 18.0363C77.8205 18.6456 77.5356 18.9611 76.9438 19.0318C76.8534 19.0427 76.763 19.0427 76.6726 19.0509C74.1275 19.293 74.0563 19.2331 74.0563 16.6926C74.0563 13.2027 74.1111 9.71284 74.0398 6.2257C74.0097 4.71061 74.8754 4.70789 75.9713 4.69973C77.0945 4.69157 77.9959 4.7623 77.8753 6.24746C77.8068 7.10156 77.8616 7.96927 77.8616 8.82881C77.8452 8.82881 77.8315 8.82881 77.8151 8.82881L77.8178 8.83153Z" fill="#522E9A"/>
<path d="M160.432 18.9231C159.276 19.1408 158.799 18.5695 158.84 17.2612C158.909 15.0008 158.854 12.7404 158.865 10.4773C158.876 8.73374 160.558 7.75451 161.983 8.8371C162.739 9.41103 163.142 9.14175 163.753 8.91054C165.574 8.21692 166.139 8.65485 165.947 10.5399C165.881 11.1872 165.61 11.4647 164.95 11.5789C163.026 11.9162 162.437 12.6561 162.413 14.6145C162.402 15.4741 162.413 16.3336 162.41 17.1932C162.402 18.8415 162.311 18.9232 160.435 18.9259L160.432 18.9231Z" fill="#522E9A"/>
</svg>
