<svg width="24" height="24" viewBox="0 0 24 24" fill="none" xmlns="http://www.w3.org/2000/svg">
<path d="M6 8H15V6C15 5.16667 14.7083 4.45833 14.125 3.875C13.5417 3.29167 12.8333 3 12 3C11.1667 3 10.4583 3.29167 9.875 3.875C9.29167 4.45833 9 5.16667 9 6H7C7 4.61667 7.48333 3.44167 8.45 2.475C9.43333 1.49167 10.6167 1 12 1C13.3833 1 14.5583 1.49167 15.525 2.475C16.5083 3.44167 17 4.61667 17 6V8H18C18.55 8 19.0167 8.2 19.4 8.6C19.8 8.98333 20 9.45 20 10V20C20 20.55 19.8 21.025 19.4 21.425C19.0167 21.8083 18.55 22 18 22H6C5.45 22 4.975 21.8083 4.575 21.425C4.19167 21.025 4 20.55 4 20V10C4 9.45 4.19167 8.98333 4.575 8.6C4.975 8.2 5.45 8 6 8ZM6 20H18V10H6V20ZM12 17C12.55 17 13.0167 16.8083 13.4 16.425C13.8 16.025 14 15.55 14 15C14 14.45 13.8 13.9833 13.4 13.6C13.0167 13.2 12.55 13 12 13C11.45 13 10.975 13.2 10.575 13.6C10.1917 13.9833 10 14.45 10 15C10 15.55 10.1917 16.025 10.575 16.425C10.975 16.8083 11.45 17 12 17ZM6 20V10V20Z" fill="#3F4946"/>
</svg>
