<svg width="600" height="90" viewBox="0 0 600 90" fill="none" xmlns="http://www.w3.org/2000/svg">
<rect width="600" height="90" rx="12" fill="#FEE500"/>
<path d="M250.76 34.64H238.58V36.89H247.97C247.91 38.3 247.67 39.62 247.28 40.85L237.53 41.6L238.01 43.94L246.41 43.04C244.55 46.73 241.25 49.55 237.11 51.44L238.76 53.48C246.14 49.76 250.73 43.85 250.76 34.64ZM257.39 31.88H254.75V58.1H257.39V44.63H261.56V42.44H257.39V31.88ZM276.717 34.64H264.537V36.89H273.927C273.867 38.3 273.627 39.62 273.237 40.85L263.487 41.6L263.967 43.94L272.367 43.04C270.507 46.73 267.207 49.55 263.067 51.44L264.717 53.48C272.097 49.76 276.687 43.85 276.717 34.64ZM283.347 31.88H280.707V58.1H283.347V44.63H287.517V42.44H283.347V31.88ZM310.654 40.79C310.654 36.41 306.784 33.5 300.874 33.5C295.024 33.5 291.124 36.41 291.124 40.79C291.124 44.87 294.424 47.63 299.524 48.05V52.52H289.054V54.71H312.724V52.52H302.194V48.08C307.324 47.69 310.654 44.87 310.654 40.79ZM307.924 40.79C307.924 43.79 305.104 45.86 300.874 45.86C296.644 45.86 293.854 43.79 293.854 40.79C293.854 37.82 296.644 35.72 300.874 35.72C305.134 35.72 307.924 37.82 307.924 40.79ZM346.562 54.77V52.61H336.002V48.47H344.342V46.31H328.382V42.2H343.622V34.04H325.682V36.2H340.982V40.04H325.742V48.47H333.332V52.61H322.892V54.77H346.562ZM372.519 54.29V52.13H348.849V54.29H372.519ZM369.369 34.85H351.309V36.98H366.669C366.669 40.94 366.219 47.39 365.559 49.91L368.139 50.24C368.919 46.85 369.369 40.82 369.369 34.85ZM396.316 50.93V31.88H393.646V50.93H396.316ZM396.916 57.29V55.16H381.736V49.13H379.066V57.29H396.916ZM382.396 33.65C378.376 33.65 375.406 36.44 375.406 40.22C375.406 43.97 378.376 46.58 382.396 46.58C386.446 46.58 389.416 43.97 389.416 40.19C389.416 36.44 386.446 33.65 382.396 33.65ZM382.396 35.93C384.976 35.93 386.596 37.7 386.596 40.19C386.596 42.59 384.976 44.36 382.396 44.36C379.936 44.36 378.196 42.56 378.196 40.16C378.196 37.73 379.936 35.93 382.396 35.93Z" fill="black" fill-opacity="0.85"/>
<g clip-path="url(#clip0_1_186)">
<path fill-rule="evenodd" clip-rule="evenodd" d="M46.0001 27.9523C36.0584 27.9523 28 34.2111 28 41.9302C28 46.7309 31.1168 50.9631 35.8631 53.4802L33.8661 60.8138C33.6897 61.4619 34.4269 61.9783 34.993 61.6028L43.7467 55.7949C44.4854 55.8666 45.2362 55.9084 46.0001 55.9084C55.941 55.9084 63.9999 49.6498 63.9999 41.9302C63.9999 34.2111 55.941 27.9523 46.0001 27.9523Z" fill="black"/>
</g>
<defs>
<clipPath id="clip0_1_186">
<rect width="36" height="34" fill="white" transform="translate(28 28)"/>
</clipPath>
</defs>
</svg>
