<svg width="16" height="20" viewBox="0 0 16 20" fill="none" xmlns="http://www.w3.org/2000/svg">
<path d="M13.7545 12.0002C14.9966 12.0002 16.0034 13.007 16.0034 14.2491V15.1675C16.0034 15.7409 15.8242 16.2999 15.4908 16.7664C13.9449 18.9296 11.4206 20.0013 8.0004 20.0013C4.5794 20.0013 2.05643 18.9292 0.514266 16.7648C0.182306 16.2989 0.00390625 15.7411 0.00390625 15.169V14.2491C0.00390625 13.007 1.01076 12.0002 2.25278 12.0002H13.7545ZM8.0004 0.00488281C10.7618 0.00488281 13.0004 2.24346 13.0004 5.00488C13.0004 7.76631 10.7618 10.0049 8.0004 10.0049C5.23894 10.0049 3.00036 7.76631 3.00036 5.00488C3.00036 2.24346 5.23894 0.00488281 8.0004 0.00488281Z" fill="white"/>
</svg>
